<?xml version="1.0" encoding="utf-8"?><svg xmlns="http://www.w3.org/2000/svg" xmlns:xlink="http://www.w3.org/1999/xlink"><symbol viewBox="0 0 100 100" id="down"><path d="M50 79.7L0 31.2l9-11L50 58l41-37.7 9 11-50 48.4z"/></symbol><symbol viewBox="0 0 100 100" id="economist"><path fill="#E61006" d="M-.6 50V24.5H99.6V76H-.6V50zM21 61.4c.5 0 1-.5 1.5-1l.2-.2V60l-.2-.4-.4.3c-.2.3-1 1-2 .4-1-.3-1.5-1.7-1.5-4 0-2.2.6-3.3 2-3.3.8 0 1 .6 1.4 1.7 0 .3 0 .3.2.3h.4c.2 0 .2 0 .2-1v-1H22c-1-.3-2-.3-3 0-2 .4-3 2-3 4.3 0 2 1 3.5 2.3 4 .8.6 2 .6 2.8.3zm9 0c.7 0 1-.4 1.6-.8 1-1 1.6-2.7 1.4-4.4-.4-2.2-2-3.6-4.3-3.6-2.6 0-4.2 1.8-4.2 4.6 0 2 1 3.6 2.6 4.3 1 .3 2 .3 3 0zm-2-.7c-.8-.5-1.3-2-1.3-4.2 0-1.4.2-2 .6-2.7 1-1 2.4-.6 3 1 .4.8.6 1.5.6 2.7 0 1.7-.8 2.8-1.6 3.3-.5.2-1 .2-1.6 0zm24 .8c.8-.2 2-1 2.4-1.8.5-1 .8-2.3.6-3.4-.4-2.2-1.8-3.6-4-3.7-1.4 0-2.5.3-3.3 1-.8 1-1.2 2-1.2 3.6 0 3.2 2.3 5 5.4 4.4zm-1.8-.7c-1-.5-1.5-2-1.5-4.3 0-1.7.3-2.5 1-3 .3-.3 1-.3 1.5 0 1 .5 1.7 2 1.7 4 0 1.6-.8 2.7-1.5 3.2-.4.3-1 .3-1.6 0zm34 .6c.6-.3 1.3-1 1.5-1.6.2-.5.2-1.3 0-1.7-.2-.3-.8-1-2.5-2l-1-1V54c.4-.4 1-.6 1.6-.4.4 0 .6.3.8 1 0 .3.2.4.3.4h.4v-2c-.2 0-.6 0-1-.3-2.6-.5-4 .4-4 2.5 0 1.2.3 1.8 2 3 1.3.8 1.8 1.5 1.5 2 0 .6-.6.7-1.3.7-.6 0-.7 0-1-.5l-.3-.8c-.3-.6-.4-.7-1-.6-.2 0-.2 0-.2 1 0 .6 0 1 .2 1l.6.2c1.5.3 2 .3 3 0zm8.4 0c.5-.3.5-.3.6-.6 0-.3 0-.3-.2-.2h-.7c-.6 0-1 0-1.3-.6-.2-.4-.2-.6-.2-3.3v-3h2v-1h-2v-2h-1c0 .6-.5 1.5-.8 1.8l-1 .4h-.3v.5h1v3c0 3 0 3.3.6 4l.7.5c.4.3.5.3 1.3.3.5 0 1-.2 1.3-.3zm-79.4 0h.3l.2-1.2.2-1.4c0-.2 0-.2-.8-.2-.4 0-.4 0-.4.2 0 .5-.3 1-.6 1.4-.4.3-.8.4-2 .4S9 60.8 9 58v-2.5h1.2c1.6 0 1.8.2 2 1.2 0 .3 0 .3.3.3h.3v-4h-.3c-.3 0-.3 0-.4.6v.8c0 .3-1 .4-2.2.2H9V50h1c.7 0 1.4 0 1.6.2.4 0 .7.5.8 1v.6h.7V49H5c0 .4.2.5.6.6 1.2.2 1 0 1 5.6 0 5.3 0 5.4-.4 5.6l-.7.2c-.3 0-.4 0-.4.3v.3h8.5zm26.3 0c0-.3 0-.4-.5-.5-.5-.5-.6-.7-.6-3.5 0-2.6 0-2.8.5-3.4 0-.3.4-.5 1-.5 1.2 0 1.5 1 1.4 4.6 0 2.4 0 2.5-.7 2.7-.4 0-.5 0-.5.2v.2H45V61l-.3-.2c-.6 0-.8-.2-1-.6v-6c-.4-.7-.8-1-1.3-1.5-.4-.2-.5-.2-1.3-.2-1 0-1 .2-2 1l-.4.4V52H38l-2.6.3v.2h.3c.5 0 1 .4 1 .7V60c-.2.4-.5.6-1 .6H35v.3h4.5zm22-.2L61 61c-.2 0-.4-.2-.4-.3 0-.2-.2-1-.2-2.7 0-2.5 0-2.6.2-3 .4-1 1-1.3 2-1.2.3 0 .6.4.8 1 0 .4.2 1 .2 3v3c-.2 0-.4 0-.6.2-.3 0-.4.2-.4.3v.3h4V61l-.3-.2c-.6 0-.6 0-.6-3V55l.2-.4c0-.6.4-1 1-1s1 .2 1.2.7c.2.4.2.5.2 3.3v3l-.6.2s-.3 0-.3.3v.6H72V61l-.3-.2c-.5 0-.8-.2-1-.6v-3c0-2.7 0-3-.5-3.8-.2-.2-.4-.5-.7-.6-.5-.3-.6-.3-1.3-.3-.7 0-1 0-1.3.2-.5.2-1 .5-1 .8l-.8.5-.3-.5c0-.3-.3-.6-.6-.8-.4-.2-.5-.2-1.3-.2-1 0-1.2.2-2 1l-.6.4v-1.7c0-.2 0-.2-.6 0l-2.8.2v.2h.3c.5 0 .8.3 1 .6V60c-.2.4-.5.6-1 .6H57v.3h4.5zm17 .2V61l-.4-.2c-.2 0-.4-.2-.5-1.2v-7.2h-.7c-.3.2-1 .2-1.7.3h-1c0 .2 0 .5.3.5.4 0 .8.2 1 .5 0 .3.2 3.7 0 5.4 0 2 0 2-.7 2-.4 0-.5 0-.5.5h4.6zm-2-10.6c1-.5 1-2 0-2.2-1.3-.4-2.2 1.4-1 2.2.3.2.8.2 1 0zM61 46c.4 0 1-.5 1.4-1 .5-.4.6-.6.5-.8l-.5-.3H62c-1 1-2.3 1.2-3.2.4-.5-.5-1-1.7-1-2.7v-.5h5V41c0-1-.2-1.3-.6-2-.6-.8-1.5-1-2.8-1-1.6 0-3 1.2-3.2 3-.2.8-.2 1.6 0 2.3 0 .7.4 1.2 1 1.8.8 1 2 1.6 3.5 1zm-3-5.4c.3-1 .5-1.4.8-1.7.3-.7.4-.7.8-.7s.6 0 .8.2c.4.2.8 1 1 1.5v.5H61c-.2 0-1 0-1.6.2H58v-.4zm-14.2 5h-.4c-.4 0-.7-.3-1-.7V35h1c.5 0 1 .2 1.3.3.3 0 .6.5.6 1 0 .4 0 .4.3.4h.3v-2.5H36V37h.3c.3 0 .3 0 .4-.4V36c.3-.2 1-.4 2-.4h1V40c0 5.3 0 5.2-.6 5.4H39l-.2.3v.2h5v-.6zm6.4 0H50c-.3 0-.5-.3-.5-.4-.2-.2-.2-.4-.2-2.5V40c.4-.7 1-1 1.6-1 .4 0 1 .4 1 1.7V45c0 .5 0 .6-.7.7-.3 0-.4 0-.4.2h4v-.5h-.6c-.5-.2-.5-.3-.6-3.3 0-2.5 0-2.6-.5-3-.2-.5-.7-1-1.2-1.2h-1c-.5 0-1.2.4-2 1v.2-4.6l-2 .4h-1c0 .3 0 .4.5.5.5 0 .7.3.8.8V41c0 5 0 4.7-.7 4.8-.4 0-.6.2-.5.4h4V46z"/></symbol><symbol viewBox="0 0 100 100" id="economist-small"><path fill="#E61006" d="M-.6 50V0h101v100H-.6V50zm73.8 40l2-.5 1-7.8 1.4-9.4c.3-1.6.2-1.6-2.3-1.6s-2.7 0-2.7 1.6c0 3-1.7 7-3.7 8.7-3 2.3-5.6 3-13 3-10 0-9.6 1.2-9.8-17.6V51l7.5.3c10.2.4 11.5 1 12.5 7.5.3 2 .5 2 2.2 2h1.8V48.4l.2-12.6h-2c-1.7 0-1.8 0-2.4 3.5-.2 2-1 4-1.6 4.7-2 1.8-8 2.5-15.3 1.6l-3-.3v-29h7c4 0 8 .3 9.4.6 3 .5 4.7 3 5.2 7l.4 3h2l2-.5V10H21.4v1.6c0 1.3.3 1.5 3.4 2 7 1.5 6.7 0 6.7 36.4 0 33.3 0 33.6-3.2 35.2-1 .5-2.8 1-4.3 1.2-2.3.4-2.6.6-2.6 1.8v1.4l17.8.2c10 0 21 .2 25 .3h9.2z"/></symbol><symbol viewBox="0 0 100 100" id="facebook"><path d="M69.6 50h-14v50H35V50H25V32.4h10V21c0-8.2 3.8-21 20.8-21h15.4v17.2H60c-1.8 0-4.4 1-4.4 4.8v10.4h16l-2 17.6z"/></symbol><symbol viewBox="0 0 100 100" id="googleplus"><path d="M70 57.2c-3-2-8.8-6.2-8.8-9 0-3.4 1-5 6-9s8.6-9 8.6-15.6c0-7-3-13.6-8.3-16.7h7.7l6.6-7H52.3C37.3 0 25 11 25 23.2c0 12.3 8 22.2 22.2 22.2H50C49 47 48.4 49 48.4 51c0 3.5 2 5.5 4.3 7.7h-5.4c-17 0-29 12-29 23.2 0 11 14.4 18 31.5 18 19.5 0 31.5-11 31.5-22.2 0-9-2-13.4-11.4-20.6zM52 41c-8-.3-15.4-7.6-16.8-18-1.4-10.5 4-18.4 12-18.2C55 5 61.8 13.6 63 24c1.4 10.4-3.2 17.2-11 17zm-3 54c-12 0-20.4-7.4-20.4-16.4 0-9 10-16.5 22-16.3 2.6 0 5.2.5 7.5 1.2C64.6 68 69.8 70.8 71 76c.3 1 .4 2 .4 3 0 9-5.8 16-22.4 16z"/></symbol><symbol viewBox="0 0 100 100" id="hamburger"><path d="M0 18h101v11.2H0zm0 26.6h101v11.2H0zm0 27.2h101V83H0z"/></symbol><symbol viewBox="0 0 100 100" id="home"><path d="M100 57.5H88.8V100H58.4V73.7H41.6V100H11.2V57.5H0l19-21.2v-28h14v11.3L50 0l25.3 28.5 24.7 29z"/></symbol><symbol viewBox="0 0 100 100" id="left"><path d="M20.3 50L68.8 0l11 9L42 50l37.7 41-11 9-48.4-50z"/></symbol><symbol viewBox="0 0 100 100" id="linkedin"><path d="M1.4 33.3h21.4V98H1.4zm10.7-9c-7.2 0-11.8-5-11.8-11C.2 6.8 5 2 12.2 2c7.4 0 12 5 12 11.2 0 6.3-4.6 11.2-12 11.2zM100 98H78.6V63.2c0-8.7-3-14.6-10.8-14.6-6 0-9.5 4-11 8-.6 1.3-.7 3.2-.7 5V98H34.8s.3-58.7 0-64.7H56v9c3-4.3 8-10.6 19.4-10.6 14 0 24.6 9.3 24.6 29V98z"/></symbol><symbol viewBox="0 0 100 100" id="magnifier"><path d="M97 85L73 65c-2.4-2.3-5-3.3-7.2-3.2 5.6-6.5 9-15 9-24.3C75 16.8 58.2 0 37.5 0S0 16.8 0 37.5 16.8 75 37.5 75c9.3 0 17.8-3.4 24.3-9 0 2 1 4.8 3.2 7.2L85 97c3.5 3.7 9.2 4 12.6.6 3.5-3.4 3-9-.7-12.5zM37.4 62.6c-13.8 0-25-11.2-25-25s11.2-25 25-25 25 11.2 25 25-11.2 25-25 25z"/></symbol><symbol viewBox="0 0 100 100" id="mail"><path fill-rule="evenodd" d="M10.7 14.3C4.7 14.3 0 19 0 25v50c0 5.7 4.4 10.3 10 10.7h79.7c5.7-.2 10.3-5 10.3-10.7V23.2c-1-5-5.3-9-10.5-9H10.7zm-.2 5.6h79.3L51.5 58c-.7.7-2 .7-2.6 0L10.2 20zm84 2.5v52c0 3-1 4.8-3.2 5.4l-27-27 30.3-30.4zM6 23l29.8 29.7L8.5 80C6.7 79.4 6 78 6 75.8v-53zm33.6 33.5l9.3 9.3c.4.7 1.6.7 2.3 0l9-9L84 80.4H15.7l24-24z"/></symbol><symbol viewBox="0 0 100 100" id="right"><path d="M79.7 50L31.2 0l-11 9L58 50 20.2 91l11 9 48.4-50z"/></symbol><symbol viewBox="0 0 100 100" id="rss"><path d="M13.4 100C6 100 0 94 0 86.5c0-7.3 6-13.3 13.4-13.3 7.3 0 13.3 6 13.3 13.3 0 7.3-6 13.3-13.3 13.3z"/><path d="M46.8 100c0-12.5-5-24.3-13.7-33.2C24.4 58 12.7 53 0 53V34c36.4 0 66 29.6 66 66H46.8z"/><path d="M80.7 100c0-44.6-36-80.8-80.6-80.8V0c55 0 100 45 100 100H80.6z"/></symbol><symbol viewBox="0 0 100 100" id="share"><path d="M100 17.6c0 5-1.8 9-5.2 12.4-3.5 3.5-7.6 5.3-12.5 5.3-4 0-8-1.4-11.3-4.2L35.2 49l.2 1-.2 1L71 69c3.3-3 7-4.3 11.3-4.3 5 0 9 1.7 12.5 5 3.4 3.5 5.2 7.7 5.2 12.6 0 4.8-1.7 9-5.2 12.5-3.5 3.4-7.6 5.2-12.5 5.2-4.8 0-9-1.8-12.4-5.2-3.6-3.5-5.3-7.6-5.3-12.5v-1L29 63.3c-3.4 3-7 4.2-11.4 4.2-4.8 0-9-1.7-12.4-5C1.7 59 0 54.8 0 50c0-5 1.7-9 5.2-12.5 3.4-3.5 7.5-5.2 12.4-5.2 4.3 0 8 1.4 11.3 4.2l35.8-18v-1c0-4.7 1.6-9 5-12.4 3.5-3.3 7.6-5 12.5-5 5 0 9 1.7 12.5 5 3.5 3.6 5.2 7.8 5.2 12.6z"/></symbol><symbol viewBox="0 0 100 100" id="twitter"><path d="M89.8 28.3V31c0 26.8-20.6 57.8-58.2 57.8-11.6 0-22.3-3.3-31.4-9l5 .2c9.5 0 18.3-3.3 25.3-8.8-9 0-16.5-6-19-14 1 0 2.4.3 3.7.3 2 0 3.7-.3 5.4-.7-9.3-2-16.4-10-16.4-20v-.3C7 38 10.2 39 13.5 39c-5.5-3.6-9-9.8-9-17 0-3.6 1-7 2.6-10 13.2 16 29.6 26 42.3 21-.3-1.5-.5-3-.5-4.7C48.9 17.1 58.1 8 69.4 8c6 0 11.2 2.5 15 6.4 4.6-1 9-2.6 13-5-1.6 4.8-4.8 8.8-9 11.3 4-.5 8-1.7 11.7-3.3-2.7 4-6.2 7.7-10.2 10.6z"/></symbol><symbol viewBox="0 0 100 100" id="up"><path d="M50 79.7L0 31.2l9-11L50 58l41-37.7 9 11-50 48.4z"/></symbol><symbol viewBox="0 0 100 100" id="user"><path d="M62.4 70.7c-2.5-.4-2.6-7.2-2.6-7.2s7.3-7 9-16.8c4 0 6.8-10.3 2.5-14C71.5 29 76.8 3 50 3S28.5 29 28.7 32.8c-4.3 3.6-1.6 14 2.6 14 1.6 9.6 9 16.7 9 16.7s-.2 6.8-2.7 7.2C29.6 72 0 85 0 99.4h100C100 85 70.3 72 62.4 70.7z"/></symbol><symbol viewBox="0 0 100 100" id="whatsapp"><path d="M100 48.8c0 26.8-22 48.6-49 48.6-8.7 0-16.8-2.2-23.8-6L0 100l9-26c-4.6-7.4-7.2-16-7.2-25.2 0-27 22-48.7 49-48.7s49 22 49 48.8zm-49-41C28 8 9.5 26.3 9.5 49c0 9 3 17.2 8 24l-5.3 15 16-5c6.4 4.4 14.2 7 22.6 7 22.6 0 41-18.5 41-41 0-22.6-18.4-41-41-41zM75.5 60c-.3-.5-1-.8-2.3-1.4l-8.2-4c-1-.3-1.8-.5-2.6.7s-3 4-3.8 4.7c-.7.8-1.4 1-2.6.3-1.2-.6-5-2-9.7-6-3.6-3-6-7-6.7-8.2-.7-1 0-1.7.6-2.3l1.8-2c.6-.8.8-1.3 1.2-2 .4-1 .2-1.6 0-2.2-.4-.6-2.8-6.5-4-9-.8-2.2-2-1.8-2.6-1.8h-2.3s-2 .2-3.2 1.3c-1 1.2-4 4-4 10s4.2 11.5 4.8 12.3c.6.8 8.3 13.2 20.6 18 12.2 4.8 12.2 3.2 14.4 3 2.2-.2 7-3 8-5.7 1-2.8 1-5 .8-5.6z"/></symbol><symbol viewBox="0 0 100 100" id="worldif"><path fill="#33BDEB" d="M0 0h100v100H0z"/><path fill="#fff" d="M0 3.5h11.2v93H0v-93zm13.7 93v-93H25v93H13.6zm23-93h63v9.3H48v83.7H36.6v-93zm58.6 49h-45V15.4H100v9H61.5v19h33.7v9.3zm-45 44V55h45v9.2H61.6v32.3H50.3z"/></symbol></svg>